/* XPM */
static char *_61d75a45010488e97dcb0d32d109722b0HmcqLAHWOlmpfu[] = {
/* columns rows colors chars-per-pixel */
"64 64 251 2 ",
"   c black",
".  c #010101",
"X  c #020202",
"o  c gray1",
"O  c #040404",
"+  c gray2",
"@  c #060606",
"#  c #070707",
"$  c gray3",
"%  c #090909",
"&  c gray4",
"*  c #0B0B0B",
"=  c #0C0C0C",
"-  c #0E0E0E",
";  c gray6",
":  c #101010",
">  c gray7",
",  c gray8",
"<  c #161616",
"1  c gray9",
"2  c #191919",
"3  c gray10",
"4  c #1B1B1B",
"5  c gray11",
"6  c #1D1D1D",
"7  c #1E1E1E",
"8  c gray12",
"9  c #202020",
"0  c gray13",
"q  c #222222",
"w  c #232323",
"e  c gray14",
"r  c #252525",
"t  c gray15",
"y  c #272727",
"u  c #282828",
"i  c gray16",
"p  c #2A2A2A",
"a  c gray17",
"s  c #2C2C2C",
"d  c #2D2D2D",
"f  c gray18",
"g  c #2F2F2F",
"h  c gray19",
"j  c #313131",
"k  c #323232",
"l  c gray20",
"z  c #343434",
"x  c #353535",
"c  c gray21",
"v  c #373737",
"b  c gray22",
"n  c #393939",
"m  c #3A3A3A",
"M  c gray23",
"N  c #3C3C3C",
"B  c gray24",
"V  c #3E3E3E",
"C  c #3F3F3F",
"Z  c gray25",
"A  c #414141",
"S  c gray26",
"D  c #434343",
"F  c #444444",
"G  c gray27",
"H  c #464646",
"J  c gray28",
"K  c #484848",
"L  c #494949",
"P  c gray29",
"I  c #4B4B4B",
"U  c #4C4C4C",
"Y  c gray30",
"T  c #4E4E4E",
"R  c gray31",
"E  c #505050",
"W  c #515151",
"Q  c gray32",
"!  c #535353",
"~  c gray33",
"^  c #555555",
"/  c #565656",
"(  c gray34",
")  c #585858",
"_  c gray35",
"`  c #5A5A5A",
"'  c #5B5B5B",
"]  c gray36",
"[  c #5D5D5D",
"{  c gray37",
"}  c #5F5F5F",
"|  c #606060",
" . c gray38",
".. c #626262",
"X. c gray39",
"o. c #646464",
"O. c #656565",
"+. c gray40",
"@. c #676767",
"#. c #686868",
"$. c DimGray",
"%. c #6A6A6A",
"&. c gray42",
"*. c #6C6C6C",
"=. c #6D6D6D",
"-. c gray43",
";. c #6F6F6F",
":. c gray44",
">. c #717171",
",. c #727272",
"<. c gray45",
"1. c #747474",
"2. c gray46",
"3. c #767676",
"4. c #777777",
"5. c gray47",
"6. c #797979",
"7. c gray48",
"8. c #7B7B7B",
"9. c #7C7C7C",
"0. c gray49",
"q. c #7E7E7E",
"w. c gray50",
"e. c #808080",
"r. c #818181",
"t. c gray51",
"y. c #838383",
"u. c #848484",
"i. c gray52",
"p. c #868686",
"a. c gray53",
"s. c #888888",
"d. c #898989",
"f. c gray54",
"g. c #8B8B8B",
"h. c gray55",
"j. c #8D8D8D",
"k. c #8E8E8E",
"l. c gray56",
"z. c #909090",
"x. c gray57",
"c. c #929292",
"v. c #939393",
"b. c gray58",
"n. c #959595",
"m. c gray59",
"M. c #979797",
"N. c #989898",
"B. c gray60",
"V. c #9A9A9A",
"C. c #9B9B9B",
"Z. c gray61",
"A. c #9D9D9D",
"S. c gray62",
"D. c #9F9F9F",
"F. c #A0A0A0",
"G. c gray63",
"H. c #A2A2A2",
"J. c gray64",
"K. c #A4A4A4",
"L. c #A5A5A5",
"P. c gray65",
"I. c #A7A7A7",
"U. c gray66",
"Y. c #A9A9A9",
"T. c #AAAAAA",
"R. c gray67",
"E. c #ACACAC",
"W. c gray68",
"Q. c #AEAEAE",
"!. c #AFAFAF",
"~. c gray69",
"^. c #B1B1B1",
"/. c #B2B2B2",
"(. c gray70",
"). c #B4B4B4",
"_. c gray71",
"`. c #B6B6B6",
"'. c #B7B7B7",
"]. c gray72",
"[. c #B9B9B9",
"{. c gray73",
"}. c #BBBBBB",
"|. c #BCBCBC",
" X c gray74",
".X c gray",
"XX c gray75",
"oX c #C0C0C0",
"OX c #C1C1C1",
"+X c gray76",
"@X c #C3C3C3",
"#X c gray77",
"$X c #C5C5C5",
"%X c #C6C6C6",
"&X c gray78",
"*X c #C8C8C8",
"=X c gray79",
"-X c #CACACA",
";X c #CBCBCB",
":X c gray80",
">X c #CDCDCD",
",X c #CECECE",
"<X c gray81",
"1X c #D0D0D0",
"2X c gray82",
"3X c #D2D2D2",
"4X c LightGray",
"5X c gray83",
"6X c #D5D5D5",
"7X c gray84",
"8X c #D7D7D7",
"9X c #D8D8D8",
"0X c gray85",
"qX c #DADADA",
"wX c gray86",
"eX c gainsboro",
"rX c #DDDDDD",
"tX c gray87",
"yX c #DFDFDF",
"uX c gray88",
"iX c #E1E1E1",
"pX c #E2E2E2",
"aX c gray89",
"sX c #E4E4E4",
"dX c gray90",
"fX c #E6E6E6",
"gX c #E7E7E7",
"hX c gray91",
"jX c #E9E9E9",
"kX c #EAEAEA",
"lX c gray92",
"zX c #ECECEC",
"xX c gray93",
"cX c #EEEEEE",
"vX c #EFEFEF",
"bX c gray94",
"nX c #F1F1F1",
"mX c gray95",
"MX c #F3F3F3",
"NX c #F4F4F4",
"BX c gray96",
"VX c #F6F6F6",
"CX c gray97",
"ZX c #F8F8F8",
"AX c #F9F9F9",
"SX c gray98",
"DX c #FBFBFB",
"FX c gray99",
"GX c #FDFDFD",
"HX c #FEFEFE",
"JX c white",
/* pixels */
"                                  O       %       Y.Y.L.W.g.h.g.g.x.h.g.;.<.<.;. .      O         %   O %                       ",
"                                O   O   L.W.rXaX>X7X>XOX X-X~._.W.D.n.N.h.x.7.;.<. .H H E T                 O                   ",
"                                  O OXAXAXkXkXzXaXqXrXqX-X>XOXOXW.OXJ.J.;. Xh.7.7.( E S S m m s ;   O       O                   ",
"                                  zXmXFXFXFXkXzXkXFXAXmXrXqX4X XOX~.~.L.N.n.g.t.2.( E P H m m 4 y %     O                       ",
"                                7XzXmXmXmXFXFXFXFXkXaX7XOX X_._.L.Y.N.x.7.t.<.} O.O. .S S k s y s w     O     O                 ",
"                                aXqXkXCXFXFXFXgXkX7X>X-XOX XW.-XY.Y.n.h.7.7.2.O. .( N N a s 7 4 k s O                           ",
"                                 XaXrXFXmXAXAXCXkXzXaXqX7X-X X#X}.W.W.D.h.7.;. .E H H s m w 7 k a w O                           ",
"                                O }.OXFXzXkXFXAXzXgXFXFXqXrX4X XOXY.Y.n.g.q.;.O.( S m y 7 7 w y a O     O                       ",
"                                      }.gXAXmXFXFXAXkXaX4X X~.W.N.g.7.2.} ( P N s m a 7 4 s 4                                   ",
"                                  %     _.}.#XAXFXFXkXrX>X X_.Y.N.h.t.&.O.( H S m a a 7 y 7 O                                   ",
"                                      %   N.#XzXFXFXzXrX4X X_.Y.N.g.7.<.( } H S m a w 7 k %                                     ",
"                                  O       N.#XkXFXFXzXqX>XOX_.W.n.h.q.<.} ( P m k k 7 7 k   O                                   ",
"                                  O   O O n.OXFXFXFXzXrX>XOX~.J.h.Y.q.&.;.E H S s m 7 7 s   %                                   ",
"                                O     O   N.OXFXFXFXkXrX7XOXW.N.x.W.2.<. .T T S c s 7 7 a O                                     ",
"                                    O     N.OXFXFXAXkXqX7XOXW.D.N.x.t.&.O.H  .N m y w w s O   O                                 ",
"                                  O   O O N.#XAXFXFXzXrX>XOX_.~.N.g.7.<.O.(  .S m a 7 y s   O                                   ",
"                                        % h. XkXzXrX4XOX_.L.n.h.7.;.O.T P S P a y > 7 a a O                                     ",
"                                  %   %   <.q.L.W.Y.Y.x.i.q.<.;.&.} ` P S k a w 7 y s 4 a O                                     ",
"                                O         ( N.AXrXkXFXCXmXrX4XOX~.L.N.g.7.&.`  .P c E H N   O                                   ",
"                                  O     O q.W.FXFXFXCXrX4X_._.L.N.h.q.<. .` P ( c y s < S   O                                   ",
"                                  O     O i.W.FXAXFXmXaX-X7X_.Y.x.i.7.<. .E T N c c y 4 s     %                                 ",
"                                    O O   &.D.FXFXFXkXqX_.zXW.Y.J.i.7.q.&.P P m c a < w s %                                     ",
"                                O %   O   J. XFXFXFXkXrX XzX~.W.N.i.2.<.} ( P S s N N 7 (   O                                   ",
"                                      O   N. XFXFXFXgXaX4X>X}.L.n.x.q.&.`  .H S N a y s (                                       ",
"                                  O       D.OXFXFXAXzXqX4XOX_.L.N.x.2.<.&.T P a P a 4 y a   %                                   ",
"                                O     %   x.Y.AXAXCXmXW.FX X~.W.N.i.i.&. .( P N k c a a s O                                     ",
"                                  O       n.kXFXFXFXzXqX>XOX~.J.N.i.n.;.&.` S N S w < w c                                       ",
"                                  O     ; } _.AXFXFXaXaX_.7X}.Y.N.h.q.&.} P T S N y y k m   O                                   ",
"                                O   % O   } L.AXFXFXzX7X>X#X_.J.h.x.q.7.O.( T N s s y s m %                                     ",
"                                  O     O ` i.rXzXrX7X-XW.J.D.h.t.<.} E S N c s w a y < S     O                                 ",
"                                O     %   H <.x.L.N.g.h.7.q.2.&.O.} ( T S m a w 4 m S y m   O                                   ",
"                                  O   O   x.-XFXFXFXFXFX#X7X4XOX~.L.N.i.q.;.O.E T S k S y                                       ",
"                                      O   N.OXAXAXFXgX7XmX X_.Y.D.h.2.2.O.E P S k c y k N                                       ",
"                                          N.OXFXFXmXmXaX-XOX_.Y.h.N.q.O.2.( P m s m c m H O                                     ",
"                                      O   n.OXFXCXAXmXrX~.mX~.L.N.g.q.&.O.( S H c s y y c                                       ",
"                                          N.OXAXFXqXAXqX7X X~.~.D.i.2.7.} P T P m 7 w y N O O                                   ",
"                                O     O   n.OXFXgXFXzXrX_.OXY.~.n.t.h.;. .( P S m y a c P                                       ",
"                                          N.OXFXFXAXzX_.FXOX XJ.n.g.7.2.O.( T c S a 7 s H                                       ",
"                                      O   N.OXFXAXAXmXFX>XOXY._.D.g.<.7.} ( S S c s w k P O                                     ",
"                                          n.OXAXFXaXCXqXqXOX~.L.g.D.2.&.&.( N P s k y c H                                       ",
"                                          x.OXCXAXFXzX7X4X_.rXY.N.h.q.;.(  .H S m a w y (                                       ",
"                                % O     ; E h.FXFXAXkX7XCX_._.Y.x.h.;.q.O.( T m y N w w T   O                                   ",
"                                    O     ( 7.zXFXmXkXrX-XOX_.N.N.g.q.2.O.H P H m k < w }                                       ",
"                                O   %     E g.>XrX}.OXOXW.Y.N.;.n.<.O.P P H m y 7 7 w H E ;   O                                 ",
"                                        O P OX_.OX7X Xn.x.q.&.` &.O.` T m c s y y < y s T                                       ",
"                                O         T 4XFXkXFXAXFXzX7X>X#XY.x.N.t.t.<. .E H S 4 s ( O   O                                 ",
"                                      O % N.#XmXFXAXkXgX>XOX XL.D.q.N.;.O.E S H a m y 7 (   O                                   ",
"                                O         n.OXFXAXFX>XFX>X#XN.rXn.h.7.7.} ` P S N a 7 y E     O                                 ",
"                                    %     D. XAXFXFXkXqX4XOX~.Y.N.t.n.<.O.P E S c k 7 7 ( %   %                                 ",
"                                  %   O   N.OXFXFXAXCXqX4X X~.Y.x.h.7.;.(  .P N c s 4 4 s   O                                   ",
"                                O   O O O n.OXAXFXFXkXrX-X#XJ. XN.h.7. .&.( H H m k w 4 s %                                     ",
"                                        O N.OXFXFXFXkX7X7XJ.7XY.N.h.7.<.&.E S P m w y y a                                       ",
"                                  %       N.#XmXAXFX4XAX4X X_.W.x.g.7.<.` ( H H c a 4 w w O                                     ",
"                                    O O   n.}.kXFXAX>XFX-X}._.N.L.g.t.&.O.P E S m k w w s m                                     ",
"                                % O      XrX#XFXAXFXmX7X-X#X_.D.W.h.7.<.&.P P S m y k y w P s O                                 ",
"                                  O % _.zXzXAXFXFXFXzXrX4X}.~.Y.N.h.7.&.O.( T N s N s 7 7 w } c                                 ",
"                                   XOXFXmXCXFXAXkXzXAXAXqXrX>XOXOXY.Y.n.x.2.2. .T S c y w a k E 4   O   O         O O     O     ",
"                                }.gXrXmXgXFXCXCXmXgXaXrX>X4XOXOX~._.L.L.t.q.<. .} H S y H s s H E %     O   %               O O ",
"                                rXqXgXCXFXFXCXgXzX7X>X7X X X}.~.Y.Y.g.L.t.q.;.O.( T H P c E P P P S   %     %                   ",
"                                qXkXmXAXCXAXFXFXCXzXqX4XOX XW.}.Y.Y.h.h.2.t.2. .&.2.} H T ` S T m ( s   %       O O             ",
"                                  CXCXFXFXFXzXgXmXmXFXFXgXrX4X X X}.}.L.D.n.g.q.7.;.} S } T H S T H % %     O               O O ",
"                                    OXCXAXkXmXgX7XaXrX>X>X>X X}.4XW.J.D.n.g.q.h.<.&.E S P E T E N O           O O               ",
"                                %       J.D.aXaX4X>X4X#X XOX}.~.Y.L.D.n.x.x.7.<.<.` } E k N ` H O     % O     O %     O         ",
"                                  O O       O   O O % % > % % > O ; % O   % % % O %   O % O   ;     O       %   O       O     O "
};
