/* XPM */
static char *_c6de7b8cce94c13b82ae5460a249144DKq2rpgClJjyXCgc[] = {
/* columns rows colors chars-per-pixel */
"64 64 172 2 ",
"   c black",
".  c #010101",
"X  c #020202",
"o  c gray1",
"O  c #040404",
"+  c gray2",
"@  c #060606",
"#  c gray11",
"$  c #1D1D1D",
"%  c #1E1E1E",
"&  c gray12",
"*  c #202020",
"=  c gray13",
"-  c #222222",
";  c #232323",
":  c gray14",
">  c #282828",
",  c gray16",
"<  c #2A2A2A",
"1  c gray17",
"2  c #2C2C2C",
"3  c #2D2D2D",
"4  c gray18",
"5  c #2F2F2F",
"6  c gray19",
"7  c #313131",
"8  c #353535",
"9  c gray21",
"0  c #373737",
"q  c gray22",
"w  c #393939",
"e  c #3A3A3A",
"r  c gray23",
"t  c #3C3C3C",
"y  c gray24",
"u  c #3E3E3E",
"i  c #3F3F3F",
"p  c gray25",
"a  c #414141",
"s  c gray26",
"d  c #434343",
"f  c gray27",
"g  c #464646",
"h  c gray28",
"j  c #484848",
"k  c #494949",
"l  c gray29",
"z  c #4B4B4B",
"x  c #4C4C4C",
"c  c gray30",
"v  c #4E4E4E",
"b  c #505050",
"n  c #515151",
"m  c gray32",
"M  c #535353",
"N  c gray33",
"B  c #555555",
"V  c #565656",
"C  c gray34",
"Z  c #585858",
"A  c gray35",
"S  c #5B5B5B",
"D  c gray36",
"F  c #5D5D5D",
"G  c gray37",
"H  c #606060",
"J  c gray38",
"K  c #626262",
"L  c gray39",
"P  c #646464",
"I  c #656565",
"U  c gray40",
"Y  c #676767",
"T  c #686868",
"R  c DimGray",
"E  c #6C6C6C",
"W  c #6D6D6D",
"Q  c gray43",
"!  c #6F6F6F",
"~  c gray44",
"^  c #717171",
"/  c #727272",
"(  c gray45",
")  c #747474",
"_  c #777777",
"`  c gray47",
"'  c #797979",
"]  c gray48",
"[  c #7B7B7B",
"{  c #7C7C7C",
"}  c gray49",
"|  c #7E7E7E",
" . c gray50",
".. c #808080",
"X. c #888888",
"o. c #898989",
"O. c gray54",
"+. c #8B8B8B",
"@. c gray55",
"#. c #8D8D8D",
"$. c #8E8E8E",
"%. c gray56",
"&. c #909090",
"*. c #959595",
"=. c gray59",
"-. c #979797",
";. c #989898",
":. c gray60",
">. c #9A9A9A",
",. c #9B9B9B",
"<. c #A4A4A4",
"1. c #A5A5A5",
"2. c gray65",
"3. c #A7A7A7",
"4. c gray66",
"5. c #A9A9A9",
"6. c #AAAAAA",
"7. c gray67",
"8. c #ACACAC",
"9. c gray68",
"0. c #AFAFAF",
"q. c gray69",
"w. c #B1B1B1",
"e. c #B2B2B2",
"r. c gray70",
"t. c #B4B4B4",
"y. c gray71",
"u. c #B6B6B6",
"i. c #B7B7B7",
"p. c #BCBCBC",
"a. c gray74",
"s. c gray",
"d. c gray75",
"f. c #C0C0C0",
"g. c #C1C1C1",
"h. c gray76",
"j. c #C3C3C3",
"k. c gray77",
"l. c #C5C5C5",
"z. c #CDCDCD",
"x. c #CECECE",
"c. c gray81",
"v. c #D0D0D0",
"b. c gray82",
"n. c #D2D2D2",
"m. c LightGray",
"M. c gray83",
"N. c #D5D5D5",
"B. c #D7D7D7",
"V. c gray85",
"C. c #DADADA",
"Z. c gray86",
"A. c gainsboro",
"S. c #DDDDDD",
"D. c gray87",
"F. c #DFDFDF",
"G. c gray88",
"H. c #E9E9E9",
"J. c #EAEAEA",
"K. c gray92",
"L. c #ECECEC",
"P. c gray93",
"I. c #EEEEEE",
"U. c #EFEFEF",
"Y. c gray94",
"T. c #F9F9F9",
"R. c gray98",
"E. c #FBFBFB",
"W. c gray99",
"Q. c #FDFDFD",
"!. c #FEFEFE",
"~. c white",
/* pixels */
"                                                  4.4.4.3.+.@.+.+.@.+.@.E / / E U                           @                   ",
"                                @     @ 3.4.S.Z.N.n.n.f.s.s.r.y.8.3.:.-.&.&.[ / / L C j C C     @     @                         ",
"                                    f.W.W.L.L.L.Z.S.S.n.n.n.f.f.r.y.3.:.E f.+.{ / U M f p q 9 3                                 ",
"                                  L.W.W.W.W.J.L.L.E.W.E.Z.Z.n.f.f.y.r.3.:.:.@.{ { j M j p q q = 3 @ @   @                       ",
"                                Z.L.J.W.W.W.W.W.W.L.Z.n.f.f.y.r.4.3.:.@.[ { / L L L U q p 9 3 = 1 1   @                         ",
"                                S.S.L.L.W.W.E.L.J.n.n.x.f.s.4.n.4.3.:.@.{ { / U U C u f 3 3 % = 1 3                             ",
"                                s.S.S.W.L.W.W.L.L.L.S.S.n.n.s.f.y.y.4.-.@.{ E U M f u 3 9 % = 3 3 3           @                 ",
"                                  f.f.W.L.L.W.W.L.L.W.W.S.S.n.s.f.4.4.:.+.[ / L C p q 1 = = % 1 1       @                       ",
"                                      y.J.L.E.W.W.W.L.S.n.f.3.y.:.+.{ / L C f p 3 q 3 = % = % @                                 ",
"                                        i.f.s.E.W.W.L.S.x.f.r.3.:.+.{ / L M f p q 1 3 % = 3                                     ",
"                                      @   :.f.J.W.W.J.S.n.s.y.4.:.@.{ E C U j u q 1 = % 3     @                                 ",
"                                  @       :.f.L.W.W.L.S.x.f.y.3.:.@.{ ) L M j p q 3 % = 3   @                                   ",
"                                          :.f.W.W.W.L.S.n.f.r.4.+.3.{ E R C j p 3 q % = 3   @                                   ",
"                                  @       :.f.E.W.W.J.S.n.f.r.+.-.8.{ E U C f p q 3 = % 3                                       ",
"                                @       @ :.s.W.W.W.L.S.x.s.y.4.:.+.{ E L u U p q 3 = = 3                                       ",
"                                          :.f.W.W.W.L.Z.n.k.r.4.-.+.{ / L C L p q 3 % = 3                                       ",
"                                    @     ,.f.L.L.S.n.f.r.3.:.@.[ / L M j p f 3 = = % = 3                                       ",
"                                @         -.@.4.y.4.3.+.@.{ E / U L C f p q 3 = % = = = =                                       ",
"                                    @       S.W.S.J.W.W.J.S.x.f.r.3.-.+.{ / M U j q % 1 @                                       ",
"                                @         f.Z.W.W.W.W.S.n.s.y.3.-.@.{ / L C j M q 3 6 = q                                       ",
"                                          s.S.W.E.W.L.S.x.n.i.4.:.[ +.E L M j p q 3 = % 1   @                                   ",
"                                @       @ :.s.W.W.W.L.S.y.L.r.4.:.+.) { L M f u q 3 % : 3                                       ",
"                                      @   -.k.W.W.W.J.Z.s.L.y.4.:.@.[ E L C j p 3 q % = 3   @                                   ",
"                                          :.s.W.W.E.L.S.n.x.y.4.:.+.{ / C U j p 9 3   = 1     @                                 ",
"                                          ,.f.W.W.W.L.S.n.f.r.4.:.@.{ / U M f 1 j 1 = = 3                                       ",
"                                  @       -.4.W.W.W.L.y.W.f.i.4.:.@.{ E L C j p q 3 % % 1                                       ",
"                                      @   :.G.W.W.W.L.S.x.f.y.4.:.[ :.E R C f q p 1 = % 3                                       ",
"                                          :.s.E.W.W.L.S.r.Z.r.4.:.+.{ / L f M p q 3 = = 1                                       ",
"                                          :.f.E.W.W.J.Z.x.f.r.4.@.:.{ E L C j u 1 9 % = 3 @                                     ",
"                                @   @     [ -.S.L.S.n.k.y.3.-.+.{ E U M f u q 3 = = = = =                                       ",
"                                  @         { :.4.,.@.+.[ { / / U L C f p q 1 % =           @                                   ",
"                                @         8.n.W.W.W.W.W.f.Z.x.f.y.4.:.@.{ E L C j 9 6 3 9                                       ",
"                                          :.f.W.W.W.J.S.L.s.y.3.:.@.[ / L M f p q 3 = % 3                                       ",
"                                          :.f.W.W.E.L.S.n.s.y.3.+.:.{ L [ C j u 3 u   = 3                                       ",
"                                          :.f.W.E.W.L.S.r.L.r.4.:.+.[ / L C u j q 3 % % 6     @                                 ",
"                                          -.f.W.W.S.W.S.N.s.r.4.:.@.[ / L f C p q % 3 = 1                                       ",
"                                          :.s.W.J.W.L.S.y.f.4.y.:.{ +.E U C v p q 1 = = =   @                                   ",
"                                      @   -.f.W.W.W.L.y.W.f.y.4.:.@.{ / L C j q p 1 = % 1                                       ",
"                                          :.f.W.E.E.Y.E.n.f.r.4.:.+.E ..L C f p q 3 % = 3                                       ",
"                                          :.f.W.W.S.W.Z.n.f.y.4.@.:.{ E L C p j 3 q % = 3   @                                   ",
"                                      @   :.s.W.W.W.L.Z.n.r.S.4.:.+...E M U f p q 3 = = 3                                       ",
"                                        @ -.f.W.W.W.J.n.L.s.y.4.:.+./ { L C j p 3 q = % 3     @                                 ",
"                                @         { f.L.W.J.L.S.x.f.r.:.:.@.{ / R f M p 9 3 = % q   @                                   ",
"                                    @       4.n.S.f.f.f.r.3.:.E :./ L M f p q 1 % = % =       @                                 ",
"                                  @       8.L.y.f.n.f.:.@.[ / M L L M j p 9 3 = = % % % %   @                                   ",
"                                      @   :.n.W.J.W.E.W.J.S.x.f.r.@.:.@.[ / L C f u % 6 3                                       ",
"                                          :.f.W.W.E.L.S.n.f.y.4.:.{ -.E U M j p 1 p = % 3                                       ",
"                                @         :.f.W.W.W.x.E.n.f.-.S.-.@.{ / U C f p q 3 = = 1                                       ",
"                                          -.f.W.W.W.L.S.n.s.r.4.:.{ :./ U f C p 9 3 = % 3                                       ",
"                                  @   @   :.f.W.W.W.L.S.n.f.y.3.-.@.[ E C U f p q 3 % % 3 @                                     ",
"                                    @     :.f.W.E.W.L.S.n.f.:.s.:.@.{ U E M j p 9 3 = = 3                                       ",
"                                          -.f.E.W.W.J.S.n.4.N.8.-.@.{ E U C u M q 1 % % 1 @   @                                 ",
"                                  @       :.f.L.W.W.n.W.n.s.y.3.:.+.[ / F C f p 9 3 = = 3                                       ",
"                                        @ -.f.L.W.E.n.W.x.f.y.3.:.+.{ E U f C u q 3 % = 3   @                                   ",
"                                        y.S.f.W.W.W.L.S.x.s.r.:.r.@.[ / L C j p 9 1 q = % 6                                     ",
"                                      y.L.J.W.W.W.W.L.S.n.s.y.4.:.+.{ / U C f p 3 q 3 = % = 3 1                                 ",
"                                  f.s.W.Y.E.W.W.L.L.W.E.S.S.x.f.s.4.4.:.@.[ / L M u q 3 % = = 3 3 3 p f j C Z Z F U U           ",
"                                s.S.S.E.J.W.W.L.L.L.Z.Z.n.x.f.f.y.r.4.:.@.[ / L C f p 3 9 = % 1 3 3 q q p f f v C M F U U       ",
"                                S.Z.L.L.E.E.E.L.L.x.n.n.s.k.y.r.4.4.@.3.{ { E U L M p j 3 3 = = 1 3 q q q q p j f v M Z F U     ",
"                                S.L.L.W.E.W.W.W.W.L.Z.n.f.s.y.y.4.3.:.@.[ { / U U / L v j q 3 = 3 1 q q 9 u u f j v C C F U     ",
"                                  L.W.E.W.W.J.J.L.E.W.W.Z.S.n.s.s.y.y.3.:.-.@.{ { E L p F q 9 % 1 q q q p p j v v M Z L L       ",
"                                  @ f.E.W.J.L.L.S.S.S.n.n.n.s.y.n.y.3.-.:.@.{ +.E R C f p q q 1 p p u j j f v C Z F U       @   ",
"                                      @ 4.4.S.Z.x.n.x.s.f.s.y.y.3.3.:.:.@.@.{ / E L C j p u v M F F F R L U L R U   @     @     ",
"                                          @   @   4.4.4.4.@.+.@.@.@.@.+./ / E / U C u p j C Z U L                               "
};
