/* XPM */
static char *_4_f46e6fb76847b52592e1e9297ca3eb9f850eb8bf6694987a97a8af3f5eff097f[] = {
/* columns rows colors chars-per-pixel */
"64 64 247 2 ",
"   c black",
".  c #010101",
"X  c #020202",
"o  c gray1",
"O  c #040404",
"+  c gray2",
"@  c #060606",
"#  c #070707",
"$  c gray3",
"%  c #090909",
"&  c gray4",
"*  c #0C0C0C",
"=  c #0E0E0E",
"-  c gray6",
";  c gray7",
":  c #151515",
">  c gray9",
",  c #181818",
"<  c #191919",
"1  c gray10",
"2  c #1B1B1B",
"3  c gray11",
"4  c #1D1D1D",
"5  c #1E1E1E",
"6  c gray12",
"7  c #202020",
"8  c gray13",
"9  c #222222",
"0  c #232323",
"q  c gray14",
"w  c #252525",
"e  c gray15",
"r  c #272727",
"t  c #282828",
"y  c gray16",
"u  c #2A2A2A",
"i  c gray17",
"p  c #2C2C2C",
"a  c #2D2D2D",
"s  c gray18",
"d  c #2F2F2F",
"f  c gray19",
"g  c #313131",
"h  c #323232",
"j  c gray20",
"k  c #343434",
"l  c #353535",
"z  c gray21",
"x  c #373737",
"c  c gray22",
"v  c #393939",
"b  c #3A3A3A",
"n  c gray23",
"m  c #3C3C3C",
"M  c gray24",
"N  c #3E3E3E",
"B  c #3F3F3F",
"V  c gray25",
"C  c #414141",
"Z  c gray26",
"A  c #434343",
"S  c #444444",
"D  c gray27",
"F  c #464646",
"G  c gray28",
"H  c #484848",
"J  c #494949",
"K  c gray29",
"L  c #4B4B4B",
"P  c #4C4C4C",
"I  c gray30",
"U  c #4E4E4E",
"Y  c gray31",
"T  c #505050",
"R  c #515151",
"E  c gray32",
"W  c #535353",
"Q  c gray33",
"!  c #555555",
"~  c #565656",
"^  c gray34",
"/  c #585858",
"(  c gray35",
")  c #5A5A5A",
"_  c #5B5B5B",
"`  c gray36",
"'  c gray37",
"]  c #5F5F5F",
"[  c #606060",
"{  c gray38",
"}  c #626262",
"|  c gray39",
" . c #646464",
".. c #656565",
"X. c gray40",
"o. c #676767",
"O. c #686868",
"+. c DimGray",
"@. c #6A6A6A",
"#. c gray42",
"$. c #6C6C6C",
"%. c #6D6D6D",
"&. c gray43",
"*. c #6F6F6F",
"=. c gray44",
"-. c #717171",
";. c #727272",
":. c gray45",
">. c #747474",
",. c gray46",
"<. c #767676",
"1. c #777777",
"2. c gray47",
"3. c #797979",
"4. c gray48",
"5. c #7B7B7B",
"6. c #7C7C7C",
"7. c gray49",
"8. c #7E7E7E",
"9. c gray50",
"0. c #808080",
"q. c #818181",
"w. c gray51",
"e. c #838383",
"r. c #848484",
"t. c gray52",
"y. c #868686",
"u. c gray53",
"i. c #888888",
"p. c #898989",
"a. c gray54",
"s. c #8B8B8B",
"d. c gray55",
"f. c #8D8D8D",
"g. c #8E8E8E",
"h. c gray56",
"j. c #909090",
"k. c gray57",
"l. c #929292",
"z. c #939393",
"x. c gray58",
"c. c #959595",
"v. c gray59",
"b. c #979797",
"n. c #989898",
"m. c gray60",
"M. c #9A9A9A",
"N. c #9B9B9B",
"B. c gray61",
"V. c #9D9D9D",
"C. c gray62",
"Z. c #9F9F9F",
"A. c #A0A0A0",
"S. c gray63",
"D. c #A2A2A2",
"F. c gray64",
"G. c #A4A4A4",
"H. c #A5A5A5",
"J. c gray65",
"K. c #A7A7A7",
"L. c gray66",
"P. c #A9A9A9",
"I. c #AAAAAA",
"U. c gray67",
"Y. c #ACACAC",
"T. c gray68",
"R. c #AEAEAE",
"E. c #AFAFAF",
"W. c gray69",
"Q. c #B1B1B1",
"!. c #B2B2B2",
"~. c gray70",
"^. c #B4B4B4",
"/. c gray71",
"(. c #B6B6B6",
"). c #B7B7B7",
"_. c gray72",
"`. c #B9B9B9",
"'. c gray73",
"]. c #BBBBBB",
"[. c #BCBCBC",
"{. c gray74",
"}. c gray",
"|. c gray75",
" X c #C0C0C0",
".X c #C1C1C1",
"XX c gray76",
"oX c #C3C3C3",
"OX c #C5C5C5",
"+X c #C6C6C6",
"@X c gray78",
"#X c #C8C8C8",
"$X c gray79",
"%X c #CACACA",
"&X c #CBCBCB",
"*X c gray80",
"=X c #CDCDCD",
"-X c #CECECE",
";X c gray81",
":X c #D0D0D0",
">X c gray82",
",X c #D2D2D2",
"<X c LightGray",
"1X c gray83",
"2X c #D5D5D5",
"3X c gray84",
"4X c #D7D7D7",
"5X c #D8D8D8",
"6X c gray85",
"7X c #DADADA",
"8X c gray86",
"9X c gainsboro",
"0X c #DDDDDD",
"qX c gray87",
"wX c #DFDFDF",
"eX c gray88",
"rX c #E1E1E1",
"tX c #E2E2E2",
"yX c gray89",
"uX c #E4E4E4",
"iX c gray90",
"pX c #E6E6E6",
"aX c #E7E7E7",
"sX c gray91",
"dX c #E9E9E9",
"fX c #EAEAEA",
"gX c gray92",
"hX c #ECECEC",
"jX c gray93",
"kX c #EEEEEE",
"lX c #EFEFEF",
"zX c gray94",
"xX c #F1F1F1",
"cX c gray95",
"vX c #F3F3F3",
"bX c #F4F4F4",
"nX c gray96",
"mX c #F6F6F6",
"MX c gray97",
"NX c #F8F8F8",
"BX c #F9F9F9",
"VX c gray98",
"CX c #FBFBFB",
"ZX c gray99",
"AX c #FDFDFD",
"SX c #FEFEFE",
"DX c white",
/* pixels */
"                                  o     . O       P.I.H.T.a.d.s.p.k.s.s.&.=.=.=.| X @   .   + .   $   X O     .                 ",
"                                o   X o K.P.7XeX;X3X-X|. X@XW./.T.Z.n.m.f.k.5.*.*.o.Y R ! Y     X + @ o     X                   ",
"                                X o  XVXZXfXdXjXqX6XqX3X%X:X.X XR.XXA.Z.*.|.h.4.1.^ ( S B m b p #   X       + .                 ",
"                                  zXvXDXDXZXgXgXdXDXCXvXqX5X1X|.XXQ.!.H.n.v.i.w.,.Q R F V n c 2 w & X X O   .                   ",
"                                2XkXvXbXxXSXDXSXSXsXeX3X.X X/.^.J.L.m.h.3.q.>.[ | ..[ V C g g w h q . X +                       ",
"                                rX7XdXcXDXSXSXuXfX2X=X$XoX[.T.%XI.L.b.d.2.4.<.X. ./ V B a f 4 < u p o     . O .                 ",
"                                {.eX9XAXhXCXNXbXhXhXwX7X2X*X{.+X).E.R.C.s.5.*.{ Q D A s v 5 6 k f q % .     X                   ",
"                                O '.|.ZXlXdXDXNXzXpXDXAX5X0X:X{. XL.I.c.s.9.&...W B n t 6 7 8 t i +     O   X                   ",
"                                    . ~.pXnXcXDXZXCXhXeX:X].!.W.M.i.4.1.] Q L N u n p 7 4 p 1 .                                 ",
"                                  $ .   `.].XXBXDXZXgXqX>X}.!.P.N.s.0.+.o.~ G S z a u 5 q 3 @ @                                 ",
"                                    . *   N..XkXSXAXgX9X:X X^.L.m.s.4.>.~ [ F C m y q 4 a $   @                                 ",
"                                X +       M.XXgXCXSXjX8X=X X(.U.c.g.0.-.' / L m k k 5 4 g   @                                   ",
"                                  # . X + l. XCXVXAXhX8X;X.X~.D.g.L.9.@.$.E D Z d c 4 6 s   #                                   ",
"                                @   X X   n.oXZXAXCXdX8X<XoXT.b.z.U.2.-.| Y P Z l a 8 8 u @   .                                 ",
"                                . . @   X n.|.DXSXCXdX9X<XXXE.V.M.j.0.$. .G } m n r 8 9 u O   X                                 ",
"                                  @   +   M.oXBXZXZXhX0X;X|./.R.v.a.5.=. .Q { A n i 4 9 a   @                                   ",
"                                  X   o + n. XdXkXqX:X X(.G.b.g.5.=.X.Y K C L u w 2 0 0 t . O X                                 ",
"                                o   O     l.z.P.R.K.L.k.t.0.;.*.@.' / K Z k u 9 2 0 w 7 q $   X                                 ",
"                                o   @ o +   6XMX0XfXDXmXxX0X;X.X!.H.m.p.4.$.^ | K B T z     % O                                 ",
"                                  o       *X7XSXZXSXnXeX,X_.(.K.m.g.q.-.{ / P W c q f 5 M .   .                                 ",
"                                . o   % O (.uXVXVXAXkXtX&X2X/.K.k.e.4.>.| T I V c d w 2 y X @                                   ",
"                                  @     X m.).DXCXCXsX6X~.kXT.P.C.i.6.7.+.I L v k h : e s #   X                                 ",
"                                    # .   G..XCXSXSXgXwX{.jX^.T.m.u.,.-.[ ! K Z a n B 3 j   + @                                 ",
"                                    . .   x. XAXAXZXaXrX:X;X).H.v.l.6.$.) { D C b t y 0 i o                                     ",
"                                  O       V..XSXDXVXjX8X;XoX/.J.b.k.3.;.+.I K i U e 4 0 a X .                                   ",
"                                O   # +   l.U.BXMXMXcXR.DX|.~.T.M.t.y.+. .~ J N j x 0 5 w %   o                                 ",
"                                o   X   o b.yXDXDXDXkX5X*XXXW.H.m.r.z.*.+.^ A n B q 7 4 j                                       ",
"                                  %     # k.OXmXCXDXyXyX).2X].P.v.s.0.O.' L U Z n p 8 w q   o                                   ",
"                                .     X   M.oXMXCXCXkX1X=XOX(.D.j.k.7.2.O.W R m a k 5 7 t @   X                                 ",
"                                o @ +   . 1.l.yXkX9X2X%XE.F.V.g.8.:.] Q Z B k p 7 y r u e   o X                                 ",
"                                  X     $   q.z.J.n.p.a.3.8.>.#.o._ ~ L V M u 8 4 n m P *   @ X                                 ",
"                                . . @ X   R.-XSXAXSXCXDXoX4X<X.X^.K.M.i.7.&. .Q L F k R j +   X                                 ",
"                                .     X   b.XXCXVXDXsX3XxX|.^.I.M.h.>.,. .R H C l k 8 t j o                                     ",
"                                .     X   b.XXCXDXxXbXrX#X.X/.J.f.m.7.o.2.Q K m a m c u t   . o                                 ",
"                                .     X   b.XXCXvXCXzX9X!.xX!.J.n.u.0.$.o./ A F c p t 8 s @ X                                   ",
"                                .     X   b.XXCXDX6XCX5X3X[.W.E.M.i.2.1.` J Y H c 6 0 4 u     o                                 ",
"                                .     X   b.XXCXsXDXhX9X/.XXL.!.v.e.g.#. .^ J Z v r i 3 q     X                                 ",
"                                .     X   b.XXCXSXNXgX!.ZX.X].D.b.s.3.<.X.W T c Z u 7 3 a O                                     ",
"                                .     X   b.XXCXCXCXcXAX=X.XI.!.N.p.-.5.` / Z Z x a 6 9 a     +                                 ",
"                                .     X   b.XXCXAXeXMX3X5X|.~.K.p.S.1.$.$.W V H p c w 6 t + o                                   ",
"                                  o   o . B..XVXBXDXjX3X:X_.9XL.V.d.8.&.! } G V z p 7 6 p O   .                                 ",
"                                .       o n.].DXAXNXgX<XnX(.(.L.l.s.%.6...! I m i N 6 1 i   # +                                 ",
"                                    O   O 3..XfXAXxXdX0X$XoX^.m.V.a.9.<...H P F x a 3 w M   .                                   ",
"                                #     $   @ W.&X9X[..XXXE.P.n.%.c.;. .P K F c t 6 6 9 N 4 % o O                                 ",
"                                  O X X   R.eX].oX1X}.v.z.0.$.~ @.../ Y c c s 9 q < 0 y 1   o .                                 ",
"                                  o   @ O c.:XZXaXAXVXCXhX2X*X+XI.j.M.r.0.:.[ Q D N 2 s l     o                                 ",
"                                  %   .   N.}.AXDXMXfXaX&X X[.D.B.7.b.=.o.E Z F a M t < k   @                                   ",
"                                X .   . o c.XXZXVXDX*XZX-XOXn.0Xv.g.2.3.' ( L B c f 6 7 y +   .                                 ",
"                                o   @ .   M.[.AXAXAXdX7X<X.X^.U.m.9.v.-.X.J W V x a 6 8 p X   O                                 ",
"                                  +   +   M.{.CXVXNXbX8X>X|.W.L.k.f.5.*.Q [ J B c a 4 4 p O   .                                 ",
"                                %   $ @ o c.oXCXZXSXfX0X&XoXZ.{.N.s.5...@.~ F S z d 5 7 f   O                                   ",
"                                        @ n.}.CXVXDXsX5X5XG.2XI.m.s.4.;.@.W Z K n 0 p 4 y $   #                                 ",
"                                X #       m.OXkXmXDX:XBX<X}./.Y.l.d.3.>._ ! H F n y 6 5 r   o +                                 ",
"                                .   @ @   M.'.gXDXMX=XDX=X].).V.F.u.q.#.X.J E B c d 5 w i @ +                                   ",
"                                @ X     '.9XXXCXVXSXxX5X%X#X~.V.Y.d.4.:.@.I P V v w x 0 8 e X #                                 ",
"                                  O @ ^.jXjXBXDXAXAXgX8X<X[.~.K.N.h.3.%.X.Q I n s b p q 4 7 i 9                                 ",
"                                . }..XZXxXmXDXMXfXzXVXCX8XqX-X.X XK.I.x.l.1.1.{ E C l y 6 e 5 a > o   o . .   X   X X     . X   ",
"                                `.uX0XnXiXDXnXbXlXaXqXwX-X:X X.X!./.J.G.w.5.-.] / G G u v < 5 f h $ X     X .             . X . ",
"                                rX5XaXnXDXSXMXsXkX<X=X1X[.|.`.^.I.P.a.K.q.8.&.+.' Y B D p g y , u a X X .     .   .       . .   ",
"                                4XgXxXCXMXZXCXDXmXkX8X;XXX{.E.'.K.L.j.d.3.q.,.{ ..3.{ L L z i 9 d e w o     @   X X .           ",
"                                  vXbXAXDXAXlXsXcXvXDXZXyXeX:X[.}._.`.J.C.n.i.7.5.*.) V [ c v 6 i n $ o . . .               . . ",
"                                . o .XmXBXdXlXaX4XyXqX*X=X;X|.'.,XR.G.M.z.p.6.h.*.%.~ G S z v y e $ #   .   X . o       . .   . ",
"                                o   o % T.G.qX9X:X=X;X+X|..X`.E.Y.J.C.b.j.l.2.;.>.( ^ U x B U 4 o X   o .     @ $ O . . X .     ",
"                                  + X       +   o + & & - * $ ; @ = $ + X % % * o %   O + @     X   #     O X . + .     X . . X "
};
