/* XPM */
static char *_4063_9191a7c22cd31175430cf9c7e830f93c5393a5ada53d5bd4cea06df0a577eb97[] = {
/* columns rows colors chars-per-pixel */
"64 64 228 2 ",
"   c #000000",
".  c #0B0301",
"X  c #040609",
"o  c #090809",
"O  c #0A0907",
"+  c #130200",
"@  c #1A0500",
"#  c #140A06",
"$  c #060910",
"%  c #1C1B16",
"&  c #3B230D",
"*  c #25231D",
"=  c #2B261D",
"-  c #3B2C15",
";  c #3C2C1C",
":  c #372311",
">  c #3D331F",
",  c #2D2B23",
"<  c #2D2C2A",
"1  c #262626",
"2  c #332B23",
"3  c #352E29",
"4  c #3F2F22",
"5  c #2D3025",
"6  c #353225",
"7  c #3A3324",
"8  c #34312B",
"9  c #3A352C",
"0  c #3C392E",
"q  c #36382B",
"w  c #2E2E32",
"e  c #302F34",
"r  c #2E3233",
"t  c #3F3934",
"y  c #3B3B3C",
"u  c #373535",
"i  c #452E14",
"p  c #432E1A",
"a  c #552E13",
"s  c #552F18",
"d  c #4B3216",
"f  c #44321C",
"g  c #4C341B",
"h  c #4C391F",
"j  c #403017",
"k  c #5C3314",
"l  c #523A1F",
"z  c #5A371C",
"x  c #613A1D",
"c  c #413323",
"v  c #4A3523",
"b  c #463924",
"n  c #4B3925",
"m  c #43362A",
"M  c #49372B",
"N  c #433B2D",
"B  c #4C3B2B",
"V  c #533C23",
"C  c #5A3D25",
"Z  c #523E2B",
"A  c #553B2B",
"S  c #453C33",
"D  c #4A3E33",
"F  c #423E3F",
"G  c #5B4124",
"H  c #554128",
"J  c #5C432A",
"K  c #5D4829",
"L  c #554021",
"P  c #464034",
"I  c #4C4235",
"U  c #44433E",
"Y  c #4B433A",
"T  c #4D483E",
"R  c #534333",
"E  c #5A4432",
"W  c #53463C",
"Q  c #574A3D",
"!  c #5C4A3D",
"~  c #5C4932",
"^  c #5F503D",
"/  c #624326",
"(  c #6C4424",
")  c #63452B",
"_  c #6B462A",
"`  c #624B2C",
"'  c #6B492C",
"]  c #6F4827",
"[  c #7A4826",
"{  c #71462C",
"}  c #744C2B",
"|  c #7B4B2B",
" . c #754725",
".. c #7C522E",
"X. c #75512F",
"o. c #624733",
"O. c #634932",
"+. c #6C4B33",
"@. c #624B3C",
"#. c #6C4D3C",
"$. c #754C32",
"%. c #704B38",
"&. c #6F5137",
"*. c #6C513B",
"=. c #755335",
"-. c #7C5431",
";. c #7D5936",
":. c #74533C",
">. c #7E543A",
",. c #7D5B3B",
"<. c #3F3F42",
"1. c #433E44",
"2. c #464343",
"3. c #4C4643",
"4. c #474944",
"5. c #4E4A44",
"6. c #4A464D",
"7. c #45494D",
"8. c #4B494D",
"9. c #46444B",
"0. c #544744",
"q. c #524A42",
"w. c #5C4A42",
"e. c #514D49",
"r. c #5C5343",
"t. c #5D524B",
"y. c #54504D",
"u. c #4B4C52",
"i. c #4A4852",
"p. c #545453",
"a. c #5C5A55",
"s. c #595658",
"d. c #624D44",
"f. c #6B4B40",
"g. c #645345",
"h. c #6D5244",
"j. c #625A45",
"k. c #64544B",
"l. c #6C5A4A",
"z. c #66584A",
"x. c #735543",
"c. c #7A5543",
"v. c #7C5B43",
"b. c #745C4C",
"n. c #7D5D4A",
"m. c #745942",
"M. c #6B5D53",
"N. c #645E5C",
"B. c #655851",
"V. c #725E52",
"C. c #7B5F53",
"Z. c #67624F",
"A. c #75614E",
"S. c #6B6254",
"D. c #64635D",
"F. c #6C625A",
"G. c #636057",
"H. c #756254",
"J. c #7B6354",
"K. c #7D6957",
"L. c #796759",
"P. c #746A5C",
"I. c #7D695B",
"U. c #74675B",
"Y. c #5B5C61",
"T. c #646263",
"R. c #6B6562",
"E. c #6C6A64",
"W. c #6C6C6E",
"Q. c #7A6D62",
"!. c #706E69",
"~. c #746A64",
"^. c #7D7166",
"/. c #777168",
"(. c #6E6E70",
"). c #6D7172",
"_. c #797877",
"`. c #824C29",
"'. c #86532C",
"]. c #96552C",
"[. c #814F38",
"{. c #835534",
"}. c #8A5433",
"|. c #865936",
" X c #8B5935",
".X c #81573D",
"XX c #8D5638",
"oX c #835A3B",
"OX c #8B5C3C",
"+X c #905631",
"@X c #925D3A",
"#X c #905C37",
"$X c #8E653F",
"%X c #96623C",
"&X c #9C623C",
"*X c #936A3E",
"=X c #A3643C",
"-X c #835C42",
";X c #8C5C43",
":X c #815D4C",
">X c #915E41",
",X c #8D6645",
"<X c #896649",
"1X c #946343",
"2X c #9D6644",
"3X c #9C6845",
"4X c #99674A",
"5X c #94694C",
"6X c #9C6C4C",
"7X c #926848",
"8X c #866552",
"9X c #8A6D5B",
"0X c #886656",
"qX c #946A50",
"wX c #916C59",
"eX c #8B725E",
"rX c #9E7255",
"tX c #A46744",
"yX c #A36A44",
"uX c #A76C48",
"iX c #A2704F",
"pX c #846B61",
"aX c #847465",
"sX c #85756A",
"dX c #8B7569",
"fX c #8A7968",
"gX c #887D74",
"hX c #968375",
/* pixels */
"                                                                                                                                ",
"                                                                                                                                ",
"                                                                                                                                ",
"                                                                                                                                ",
"                                                                                                                                ",
"                                                                                                                                ",
"                                                                                                                                ",
"                                                                                                                                ",
"                                                                                                                                ",
"                                                                                                                                ",
"                                                                                                                                ",
"                                                                                                                                ",
"                                                                                                                                ",
"                                                                                                                                ",
"                                                                                                                                ",
"                                                                                                                                ",
"                                                                                                                                ",
"                                                                                                                                ",
"                                                                                                                                ",
"                                                                                                                                ",
"                                                                                                                                ",
"                                                                                                                                ",
"                                                                                                                                ",
"                                                                                                                                ",
"                                X   X     o X                                   X   X                                           ",
"                                                  . X       X                           . X                                     ",
"                                        o .                                       o           X                                 ",
"                                  O     X                                         . X O                                         ",
"                                o     X     . X                                             X                                   ",
"                                    X     o X                                   X   o X                                         ",
"                                    O         o                               X   o       X                                     ",
"                                X     . o   o Y.T.T.T.T.T.T.T.T.).).W.(.).)._._._._.o .                                         ",
"                                  .     X ).Y.7.i.i.i.6.6.6.5.5.8.u.s.Y.9.Y.Y.Y.D.D._.E.  o                                     ",
"                                . . . . T._.p.u.i.9.6.2.1.4.4.y.u.u.p.7.w <.y 9.U T E.u.D.    X                                 ",
"                                O     . E.E.sXhXgXW.!.D.F.E.D.!.F.T.D.G.a.a.p.p.P 5.4.* y                                       ",
"                                  O . S.U.L.I.fXfXL.P.Z.Z.Z.r.r.r.r.T I Y P P S q 5 5 q 5 q O O                                 ",
"                                O . + h.:X:.| .X] ` ` ` K J K H L K J H V f j - - - > 7 N 6 .                                   ",
"                                  + M.#..XOX3XyX X*X*X*X,.=.qX<X;.;.X.( C ` ` ` h J H - > N 7 .                                 ",
"                                .   l.:X{ 6X&X+X%X&X*X*X`.| ;X;XOX-...( x $._ C l l G ~ - n c . .                               ",
"                                  . g.b.%.qX4X X3X1X4X7X[.[.;X;XoX.X>._ s %.O.+.o.i @.Z ; B M +                                 ",
"                                . 5.t.~.dXV.0X:XwX0XwX:Xc.:X8Xx.m.x.f.@.A w.! d.W M D S D S 3 3                                 ",
"                                  3.R.Q.^.pXdXgXsX0XpXpXC.b.H.A.H.l.l.z.d.k.d.0.W D 0.9 9 8 8 u                                 ",
"                                . 0.~.U.F.^.I.dXH.g.M.H.k.d.r.r.! D W W W 0.F S Y S 9 , , 8 8 8                                 ",
"                                + d.d.! g.l.K.H.H.b.H.S.@.k.j.j.R R ! ! D W R S m N S 7 7 6 0 0                                 ",
"                                + h.x.x.8X,.A.z =.&.&.K g K K V V G V V & f p p > f f b b ; 7 7                                 ",
"                              . @ %.c.' 5X5X6X|.6X7X,X,XX.oXoX>.,.,.$.+.s %.o.o.K V f n H f n ;                                 ",
"                                + *.n.$.5XyXyX+XyX%X%X1X{.XXXXXX{.{.] _ s { O._ J J d s h & h c                                 ",
"                                + x.c.$.2XuX=X].yX=X%X&X`.@XXX}.{...| } z _ _ +./ ) d d V p V > .                               ",
"                                + h.c.$.4XuX=X].=X=X&X2X[ ;X;XoX|...| _ s ' ' ( / G d L v - n 7                                 ",
"                              . @ #.:X[.>XtXtX].=X=X@X2X| OXoX{.{...X. .k ' ' _ ` L i h n f n ;                                 ",
"                                . f.n.' qXiXyX+XyXtX&X&X`.#X X}.'.'.|  .k ( ] _ x x g l g - n m                                 ",
"                                # I.A.*.8XqX5XoX6X1X1X@X[  X}.{.|.X.[ ( k ] ' ' / L d h n n R 9 .                               ",
"                                  S.^.hXaXK.eXm.9X0X8X<X:.-X-X-X,.=.+.` C O.O.E K E L N N N S 9                                 ",
"                                  G.P.!.U.sXhXaXI.K.I.I.b.C.b.b.A.z.l.g.g.z.r.! I T P P 8 3 8 <                                 ",
"                                  U G.a.U.^.aX~.S.M.F.N.k.B.k.k.Q T q.T 3.3.S S Y P 0 q 2 3 8 1                                 ",
"                                  . Y q.k.k.g.V.S.V.S.M.t.B.t.t.T T q.3.q.3.Y P S S S 7 = 2 S u                                 ",
"                                  + d.d.@.O.+.' +.O.C C : Z Z B n b B n ! B B n A - : D ; B c S                                 ",
"                                . # w.0X:.-XrX{.1X,X-X,./ :.m.*.:.:.' ` C O.o.) C p B n p M c .                                 ",
"                                # . + h.c..X1X[ @X@XOX|.( } ;.X.-...} ` a +.' ) C i V n ; D ; #                                 ",
"                                    + V.C.%.-X;X{.|.$X{.( ] =.-.-.( ( k z ' ) C V p n c D 2 .                                   ",
"                                $   X D.gXfX9Xn.:.:.<X:.O.) #.+.:.+.+.V C o.A W c c 2 9 8 8   X                                 ",
"                                X X o   ~./.Q.sXsXsXsXQ.L.H.H.V.d.z.g.D W w.D D S 6 m * % .                                     ",
"                                  O       R.T./.R.R.T.N.a.t.t.t.T e.5.3.F 1.u 9 8 3 = = O     .                                 ",
"                                X   X     .   4.7.u.7.7.<.1.y U <.r w u e 1 < 1 * ,       O .                                   "
};
