/* XPM */
static char *_fc6b6556e0d4b64d6c87cbc8a691712RnPMlI46YhvgRjzv[] = {
/* columns rows colors chars-per-pixel */
"64 64 255 2 ",
"   c black",
".  c #010000",
"X  c #000100",
"o  c #010100",
"O  c #010101",
"+  c #030000",
"@  c #020100",
"#  c #020001",
"$  c #000200",
"%  c #010200",
"&  c #000300",
"*  c #010300",
"=  c #000201",
"-  c #020200",
";  c #030200",
":  c #020300",
">  c #030301",
",  c #000002",
"<  c #010002",
"1  c #000102",
"2  c #000103",
"3  c #010103",
"4  c #030002",
"5  c #030102",
"6  c #020003",
"7  c #000302",
"8  c #010302",
"9  c #020202",
"0  c gray1",
"q  c #040000",
"w  c #040001",
"e  c #040301",
"r  c #060200",
"t  c #060201",
"y  c #040002",
"u  c #050102",
"i  c #040003",
"p  c #050003",
"a  c #060002",
"s  c #070003",
"d  c #070103",
"f  c #060203",
"g  c #000400",
"h  c #000500",
"j  c #020400",
"k  c #030400",
"l  c #020500",
"z  c #030500",
"x  c #020401",
"c  c #000600",
"v  c #010600",
"b  c #000700",
"n  c #020700",
"m  c #000403",
"M  c #030502",
"N  c #020403",
"B  c #000602",
"V  c #010602",
"C  c #050503",
"Z  c #040603",
"A  c #000004",
"S  c #010004",
"D  c #000005",
"F  c #010005",
"G  c #000105",
"H  c #030004",
"J  c #030104",
"K  c #020005",
"L  c #010204",
"P  c #020204",
"I  c #020305",
"U  c #030305",
"Y  c #000106",
"T  c #010007",
"R  c #020006",
"E  c #020106",
"W  c #030106",
"Q  c #020107",
"!  c #010206",
"~  c #010207",
"^  c #030207",
"/  c #020307",
"(  c #050004",
")  c #040005",
"_  c #060004",
"`  c #060105",
"'  c #070105",
"]  c #050304",
"[  c #040205",
"{  c #050006",
"}  c #070007",
"|  c #060107",
" . c #050306",
".. c #040207",
"X. c #010504",
"o. c #030504",
"O. c #030406",
"+. c #040404",
"@. c gray2",
"#. c #060405",
"$. c #050704",
"%. c #040605",
"&. c #040406",
"*. c #040507",
"=. c #050507",
"-. c #060606",
";. c #080307",
":. c #000800",
">. c #000900",
",. c #000A00",
"<. c #000B00",
"1. c #030A02",
"2. c #000C00",
"3. c #000E00",
"4. c #000F00",
"5. c #030804",
"6. c #020C04",
"7. c #040008",
"8. c #040108",
"9. c #050009",
"0. c #030408",
"q. c #06070B",
"w. c #06030C",
"e. c #080309",
"r. c #0A0408",
"t. c #001100",
"y. c #001200",
"u. c #001300",
"i. c #001500",
"p. c #001600",
"a. c #001800",
"s. c #001900",
"d. c #001A00",
"f. c #001B00",
"g. c #001D00",
"h. c #002200",
"j. c #002600",
"k. c #002700",
"l. c #002800",
"z. c #004000",
"x. c #0F460C",
"c. c #134B0E",
"v. c #065003",
"b. c #035B04",
"n. c #10510F",
"m. c #174715",
"M. c #184C1B",
"N. c #185311",
"B. c #185615",
"V. c #175816",
"C. c #1B501C",
"Z. c #23531F",
"A. c #0B6C03",
"S. c #11610C",
"D. c #106E0E",
"F. c #0E7607",
"G. c #08710A",
"H. c #0D7B0A",
"J. c #11760E",
"K. c #126410",
"L. c #146015",
"P. c #156116",
"I. c #196318",
"U. c #147413",
"Y. c #167413",
"T. c #2E592E",
"R. c #2F5F2D",
"E. c #5D695F",
"W. c #616763",
"Q. c #0C890B",
"!. c #12800F",
"~. c #10830E",
"^. c #108F0C",
"/. c #128D0E",
"(. c #159D0B",
"). c #0D8210",
"_. c #128010",
"`. c #1D861F",
"'. c #149D11",
"]. c #1D9019",
"[. c #1B961A",
"{. c #238D1F",
"}. c #0EA10B",
"|. c #0FAF0D",
" X c #17A215",
".X c #13AD11",
"XX c #18B617",
"oX c #1BBC16",
"OX c #17BC18",
"+X c #18BD18",
"@X c #22BB13",
"#X c #1E8220",
"$X c #288324",
"%X c #228E21",
"&X c #2B812A",
"*X c #2F9527",
"=X c #28AA26",
"-X c #3CA525",
";X c #36A434",
":X c #34BB30",
">X c #37BA38",
",X c #41B417",
"<X c #42BC19",
"1X c #1FD21E",
"2X c #22C715",
"3X c #23CB1E",
"4X c #20D31F",
"5X c #2AC927",
"6X c #26D025",
"7X c #28D724",
"8X c #2FDC2A",
"9X c #36C337",
"0X c #38C334",
"qX c #3CD139",
"wX c #3AD539",
"eX c #3FD13E",
"rX c #4CCC3B",
"tX c #45B340",
"yX c #55BC4F",
"uX c #6C866D",
"iX c #6F856E",
"pX c #7F977D",
"aX c #47CE43",
"sX c #51C151",
"dX c #55FD4E",
"fX c #5CFE5D",
"gX c #5EFF5C",
"hX c #65FF5F",
"jX c #67FF63",
"kX c #6AF469",
"lX c #75FF6F",
"zX c #79FF76",
"xX c #79FF7B",
"cX c #A3FF74",
"vX c #AEFF7E",
"bX c #ACDB97",
"nX c #A7DD9F",
"mX c #AEDC9E",
"MX c #95EA8D",
"NX c #89FF86",
"BX c #8CFF85",
"VX c #90FF92",
"CX c #9DFF96",
"ZX c #A7E39D",
"AX c #AFE29D",
"SX c #A1EB9E",
"DX c #A9FF92",
"FX c #A5FF9F",
"GX c #B3FF9A",
"HX c #AAFFA1",
"JX c #B3FFA5",
"KX c #BEFFA7",
"LX c #B8FFA8",
"PX c #C0FF9E",
"IX c #C2FFA0",
/* pixels */
"                                h     z f     X.X.h h   ] A h E.h W.  h A +.  h   ] 9.9.A     h                                 ",
"                                  X.    f f A           h h :.iXpXiXh :.h   +.  +.A ] ]   +.                                    ",
"                                8.A 8.+.  A +.]     A h y.s.l.x.N.c.h.g.3.1.  9.A A A +.  f   +.                                ",
"                                A 8.0.A A ] A A   h 3.y.B.S.D.J.F.A.K.V.m.p.:.h 8.]   1.+.  ;.                                  ",
"                              A 8.A     +.  A +.6.p.I._. XXXOXOX|.}./._.Y.P.M.s.h f         ;.f                                 ",
"                                ] A h h     +.h s.P.[..X6X6X1X7X2X@X(./.~.G.b.n.p.:.h f h   ] r.f                               ",
"                                  +.    f +.h p.Y.'.oX3XwXeXaXrX<X,X-X*X%X).Q.H.v.l.h +.A h                                     ",
"                                A A h   r.]   T.].5X8XdXzXNXCXDXcXvXGXHXVXxXqX:X$XC.h 9.A   +.                                  ",
"                              A A A ] A 8.8.:.R.`.9XjXjXlXBXJXKXPXPXLXFXkXfXhX9X&XT.:.A A A +.                                  ",
"                                A A A 8.8.q.3.s.z.#X;XtXyXMXZXmXbXAXnXSXsX>X=X{.j.s.h A 9.    +.                                ",
"                              A A 9.  z A   z :.:.y.p.y.3.3.h :.3.:.:.3.y.y.p.y.:.h X.A X.h                                     ",
"                                A ] ]   ] A   r.    h -.  9.]       +.  9.+.A h   ] A ] h h -.+.                                ",
"                                    +.    r.9.9.    h   s f   z f f f   f f     f ] s r.    A A                                 ",
"                                h   A q.A A 9.q.9.+.+.  f #.  h f   f ] f f z z f f ] ;.A ] A 0.                                ",
"                                A +.  f ] f   A +.    f     ] +.    A X.              A     A                                   ",
"                                A   h     f   h   +.      f   A     *.            h   X.A f f                                   ",
"                                A                                                                                               ",
"                                                                                                                                ",
"                                                                                                                                ",
"                                                                                                                                ",
"                                                                                                                                ",
"                                                                                                                                ",
"                                                                                                                                ",
"                                                                                                                                ",
"                                                                                                                                ",
"                                                                                                                                ",
"                                                                                                                                ",
"                                                                                                                                ",
"                                                                                                                                ",
"                                                                                                                                ",
"                                                                                                                                ",
"                                                                                                                                ",
"                                                                                                                                ",
"                                                                                                                                ",
"                                                                                                                                ",
"                                                                                                                                ",
"                                                                                                                                ",
"                                                                                                                                ",
"                                                                                                                                ",
"                                                                                                                                ",
"                                                                                                                                ",
"                                                                                                                                ",
"                                                                                                                                ",
"                                                                                                                                ",
"                                                                                                                                ",
"                                                                                                                                ",
"                                                                                                                                ",
"                                                                                                                                ",
"                                                                                                                                ",
"                                                                                                                                ",
"                                                                                                                                ",
"                                                                                                                                ",
"                                                                                                                                ",
"                                                                                                                                ",
"                                                                                                                                ",
"                                                                                                                                ",
"                                                                                                                                ",
"                                                                                                                                ",
"                                                                                                                                ",
"                                                                                                                                ",
"                                                                                                                                ",
"                                                                                                                                ",
"                                                                                                                                ",
"                                                                                                                                "
};
